<svg width="31" height="30" viewBox="0 0 31 30" fill="none" xmlns="http://www.w3.org/2000/svg">
<path d="M25.938 23.5709H17.3666C17.1772 23.5709 16.9955 23.4956 16.8616 23.3617C16.7276 23.2277 16.6523 23.046 16.6523 22.8566C16.6523 22.6672 16.7276 22.4855 16.8616 22.3515C16.9955 22.2176 17.1772 22.1423 17.3666 22.1423H25.938C26.1275 22.1423 26.3091 22.2176 26.4431 22.3515C26.5771 22.4855 26.6523 22.6672 26.6523 22.8566C26.6523 23.046 26.5771 23.2277 26.4431 23.3617C26.3091 23.4956 26.1275 23.5709 25.938 23.5709Z" fill="#7064E9"/>
<path d="M26.6525 23.5709C25.5162 23.5698 24.4268 23.1179 23.6233 22.3144C22.8198 21.511 22.3679 20.4216 22.3668 19.2853V11.4284C22.3668 10.8601 22.141 10.315 21.7392 9.91317C21.3373 9.51131 20.7923 9.28555 20.224 9.28555H14.5097C14.3203 9.28555 14.1386 9.2103 14.0046 9.07635C13.8707 8.9424 13.7954 8.76072 13.7954 8.57128V0.714333C13.7954 0.524897 13.8707 0.34322 14.0046 0.209269C14.1386 0.0753172 14.3203 6.42302e-05 14.5097 6.42302e-05C15.1664 -0.0033794 15.7991 0.24658 16.2761 0.697904C16.3858 0.816049 16.5187 0.91029 16.6665 0.974735C16.8143 1.03918 16.9738 1.07244 17.135 1.07244C17.2963 1.07244 17.4558 1.03918 17.6036 0.974735C17.7513 0.91029 17.8843 0.816049 17.994 0.697904C18.4706 0.251176 19.0993 0.00257148 19.7525 0.00257148C20.4058 0.00257148 21.0345 0.251176 21.5111 0.697904C21.6207 0.815575 21.7534 0.909415 21.9009 0.973579C22.0483 1.03774 22.2074 1.07086 22.3682 1.07086C22.5291 1.07086 22.6882 1.03774 22.8356 0.973579C22.9831 0.909415 23.1158 0.815575 23.2254 0.697904C23.702 0.250763 24.3311 0.00190171 24.9847 0.00190171C25.6382 0.00190171 26.2673 0.250763 26.7439 0.697904C26.8535 0.815575 26.9862 0.909415 27.1337 0.973579C27.2812 1.03774 27.4403 1.07086 27.6011 1.07086C27.7619 1.07086 27.921 1.03774 28.0685 0.973579C28.2159 0.909415 28.3486 0.815575 28.4582 0.697904C28.9343 0.245541 29.5672 -0.00460576 30.2239 6.42302e-05C30.4134 6.42302e-05 30.595 0.0753172 30.729 0.209269C30.8629 0.34322 30.9382 0.524897 30.9382 0.714333V19.2853C30.9371 20.4216 30.4852 21.511 29.6817 22.3144C28.8782 23.1179 27.7888 23.5698 26.6525 23.5709ZM15.224 7.85702H20.224C21.1708 7.85815 22.0786 8.23478 22.7481 8.90429C23.4176 9.5738 23.7942 10.4815 23.7954 11.4284V19.2853C23.7954 20.0431 24.0964 20.7698 24.6322 21.3056C25.168 21.8414 25.8947 22.1424 26.6525 22.1424C27.4103 22.1424 28.137 21.8414 28.6728 21.3056C29.2086 20.7698 29.5096 20.0431 29.5096 19.2853V1.68931C29.4654 1.72359 29.4196 1.76074 29.3668 1.80216C28.889 2.25052 28.2584 2.50007 27.6032 2.50007C26.948 2.50007 26.3174 2.25052 25.8396 1.80216C25.7307 1.68436 25.5986 1.59036 25.4516 1.52607C25.3045 1.46178 25.1458 1.4286 24.9854 1.4286C24.8249 1.4286 24.6662 1.46178 24.5192 1.52607C24.3722 1.59036 24.24 1.68436 24.1311 1.80216C23.6533 2.25052 23.0227 2.50007 22.3675 2.50007C21.7123 2.50007 21.0817 2.25052 20.604 1.80216C20.495 1.68436 20.3629 1.59036 20.2159 1.52607C20.0689 1.46178 19.9101 1.4286 19.7497 1.4286C19.5892 1.4286 19.4305 1.46178 19.2835 1.52607C19.1365 1.59036 19.0043 1.68436 18.8954 1.80216C18.4175 2.24979 17.7873 2.49887 17.1325 2.49887C16.4778 2.49887 15.8475 2.24979 15.3697 1.80216C15.3161 1.75859 15.2675 1.71859 15.2211 1.68288L15.224 7.85702Z" fill="#7064E9"/>
<path d="M17.3665 29.9993C17.0281 29.9981 16.6937 29.9266 16.3844 29.7892C16.0751 29.6519 15.7978 29.4517 15.5701 29.2014C15.2579 28.9157 15.1044 28.785 14.7444 28.785C14.3844 28.785 14.2308 28.9129 13.9187 29.2021C13.6917 29.4532 13.4146 29.6538 13.1053 29.7912C12.796 29.9285 12.4614 29.9995 12.1229 29.9995C11.7845 29.9995 11.4499 29.9285 11.1406 29.7912C10.8313 29.6538 10.5542 29.4532 10.3272 29.2021C10.0158 28.9164 9.86296 28.7857 9.50438 28.7857C9.14581 28.7857 8.99224 28.9136 8.68153 29.2021C8.45489 29.4533 8.17805 29.6541 7.86891 29.7916C7.55977 29.929 7.22522 30 6.88689 30C6.54857 30 6.21402 29.929 5.90488 29.7916C5.59574 29.6541 5.31889 29.4533 5.09226 29.2021C4.78155 28.9164 4.62869 28.7857 4.27012 28.7857C3.91155 28.7857 3.75798 28.9136 3.44726 29.2021C3.21976 29.4523 2.94268 29.6523 2.63365 29.7896C2.32462 29.9268 1.9904 29.9982 1.65227 29.9993C1.46283 29.9993 1.28115 29.924 1.1472 29.7901C1.01324 29.6561 0.937988 29.4744 0.937988 29.285V12.8568C0.939501 11.5312 1.46677 10.2604 2.40412 9.32303C3.34147 8.3857 4.61236 7.85845 5.93797 7.85693H20.2236C20.4131 7.85693 20.5948 7.93219 20.7287 8.06614C20.8627 8.20009 20.9379 8.38177 20.9379 8.5712C20.9379 8.76064 20.8627 8.94231 20.7287 9.07627C20.5948 9.21022 20.4131 9.28547 20.2236 9.28547C19.6553 9.28547 19.1103 9.51123 18.7084 9.91308C18.3065 10.3149 18.0808 10.86 18.0808 11.4283V29.285C18.0808 29.4744 18.0055 29.6561 17.8716 29.7901C17.7376 29.924 17.5559 29.9993 17.3665 29.9993ZM9.50438 27.3565C9.84248 27.3575 10.1766 27.429 10.4856 27.5664C10.7945 27.7037 11.0714 27.904 11.2987 28.1543C11.6101 28.44 11.7629 28.5707 12.1222 28.5707C12.4815 28.5707 12.6351 28.4429 12.9472 28.1543C13.1743 27.9031 13.4515 27.7023 13.761 27.5649C14.0705 27.4275 14.4054 27.3565 14.744 27.3565C15.0826 27.3565 15.4175 27.4275 15.727 27.5649C16.0365 27.7023 16.3137 27.9031 16.5408 28.1543L16.6522 28.2557V11.4283C16.6508 10.6553 16.9016 9.903 17.3665 9.28547H5.93797C4.99112 9.2866 4.08337 9.66323 3.41385 10.3327C2.74433 11.0023 2.36769 11.91 2.36655 12.8568V28.2543C2.40084 28.2229 2.43798 28.19 2.47513 28.1543C2.70176 27.9031 2.97861 27.7023 3.28775 27.5649C3.59689 27.4274 3.93144 27.3564 4.26976 27.3564C4.60808 27.3564 4.94264 27.4274 5.25178 27.5649C5.56092 27.7023 5.83776 27.9031 6.0644 28.1543C6.37511 28.44 6.52797 28.5707 6.88725 28.5707C7.24654 28.5707 7.39868 28.4429 7.70939 28.1543C7.93672 27.9039 8.21375 27.7036 8.52281 27.5662C8.83187 27.4289 9.16617 27.3574 9.50438 27.3565Z" fill="#7064E9"/>
<path d="M9.5092 19.2854C8.99709 19.2854 8.49648 19.1335 8.07067 18.849C7.64487 18.5645 7.313 18.1601 7.11702 17.687C6.92104 17.2139 6.86977 16.6933 6.96968 16.191C7.06958 15.6888 7.31619 15.2274 7.6783 14.8653C8.04042 14.5032 8.50179 14.2566 9.00406 14.1567C9.50633 14.0568 10.0269 14.1081 10.5001 14.304C10.9732 14.5 11.3776 14.8319 11.6621 15.2577C11.9466 15.6835 12.0985 16.1841 12.0985 16.6962C12.0985 16.8856 12.0232 17.0673 11.8893 17.2012C11.7553 17.3352 11.5736 17.4104 11.3842 17.4104C11.1948 17.4104 11.0131 17.3352 10.8791 17.2012C10.7452 17.0673 10.6699 16.8856 10.6699 16.6962C10.6699 16.4666 10.6018 16.2422 10.4743 16.0513C10.3468 15.8604 10.1655 15.7117 9.95338 15.6238C9.74129 15.536 9.50791 15.513 9.28276 15.5578C9.0576 15.6026 8.85078 15.7131 8.68845 15.8754C8.52612 16.0378 8.41558 16.2446 8.37079 16.4697C8.32601 16.6949 8.34899 16.9282 8.43684 17.1403C8.52469 17.3524 8.67347 17.5337 8.86434 17.6612C9.05522 17.7888 9.27963 17.8568 9.5092 17.8568C9.69864 17.8568 9.88032 17.9321 10.0143 18.066C10.1482 18.2 10.2235 18.3817 10.2235 18.5711C10.2235 18.7605 10.1482 18.9422 10.0143 19.0762C9.88032 19.2101 9.69864 19.2854 9.5092 19.2854Z" fill="#7064E9"/>
<path d="M9.5092 23.0351C8.82271 23.0344 8.16456 22.7613 7.67914 22.2759C7.19372 21.7905 6.92068 21.1324 6.91992 20.4459C6.91992 20.2565 6.99518 20.0748 7.12913 19.9408C7.26308 19.8069 7.44477 19.7316 7.6342 19.7316C7.82364 19.7316 8.00533 19.8069 8.13928 19.9408C8.27323 20.0748 8.34849 20.2565 8.34849 20.4459C8.34849 20.6755 8.41656 20.8999 8.5441 21.0908C8.67164 21.2816 8.85292 21.4304 9.06501 21.5182C9.27711 21.6061 9.51049 21.6291 9.73564 21.5843C9.9608 21.5395 10.1676 21.429 10.3299 21.2666C10.4923 21.1043 10.6028 20.8975 10.6476 20.6724C10.6924 20.4472 10.6694 20.2138 10.5816 20.0017C10.4937 19.7896 10.3449 19.6084 10.1541 19.4808C9.96318 19.3533 9.73876 19.2852 9.5092 19.2852C9.31976 19.2852 9.13808 19.21 9.00412 19.076C8.87017 18.9421 8.79491 18.7604 8.79491 18.571C8.79491 18.3815 8.87017 18.1998 9.00412 18.0659C9.13808 17.9319 9.31976 17.8567 9.5092 17.8567C10.1959 17.8567 10.8545 18.1295 11.3401 18.6151C11.8257 19.1006 12.0985 19.7592 12.0985 20.4459C12.0985 21.1326 11.8257 21.7912 11.3401 22.2768C10.8545 22.7623 10.1959 23.0351 9.5092 23.0351Z" fill="#7064E9"/>
<path d="M9.5092 15.119C9.31977 15.119 9.13808 15.0438 9.00413 14.9098C8.87018 14.7759 8.79492 14.5942 8.79492 14.4048V13.5712C8.79492 13.3818 8.87018 13.2001 9.00413 13.0661C9.13808 12.9322 9.31977 12.8569 9.5092 12.8569C9.69864 12.8569 9.88033 12.9322 10.0143 13.0661C10.1482 13.2001 10.2235 13.3818 10.2235 13.5712V14.4048C10.2235 14.5942 10.1482 14.7759 10.0143 14.9098C9.88033 15.0438 9.69864 15.119 9.5092 15.119Z" fill="#7064E9"/>
<path d="M9.5092 24.2853C9.31977 24.2853 9.13808 24.21 9.00413 24.0761C8.87018 23.9421 8.79492 23.7604 8.79492 23.571V22.7375C8.79492 22.548 8.87018 22.3663 9.00413 22.2324C9.13808 22.0984 9.31977 22.0232 9.5092 22.0232C9.69864 22.0232 9.88033 22.0984 10.0143 22.2324C10.1482 22.3663 10.2235 22.548 10.2235 22.7375V23.571C10.2235 23.7604 10.1482 23.9421 10.0143 24.0761C9.88033 24.21 9.69864 24.2853 9.5092 24.2853Z" fill="#7064E9"/>
</svg>
