<svg width="31" height="30" viewBox="0 0 31 30" fill="none" xmlns="http://www.w3.org/2000/svg">
<path d="M10.6706 11.652C10.6183 11.6561 10.5415 11.6602 10.4401 11.6642C10.3304 11.6685 10.2533 11.6707 10.2088 11.6707C8.60025 11.6707 7.14173 11.0164 6.08548 9.96007C5.02922 8.90369 4.375 7.44501 4.375 5.83626C4.375 4.2283 5.02913 2.77009 6.08522 1.71352C7.14296 0.655284 8.60177 0 10.2088 0C11.3384 0 12.3949 0.323604 13.2905 0.883106C14.2137 1.45984 14.9653 2.28968 15.4485 3.27568L14.3303 3.82254C13.9517 3.04987 13.3599 2.39786 12.6313 1.94267C11.9289 1.50384 11.0985 1.25002 10.2088 1.25002C8.9436 1.25002 7.79767 1.76339 6.96901 2.59242C6.13908 3.42274 5.62502 4.57 5.62502 5.83625C5.62502 7.10001 6.13917 8.24609 6.96927 9.07625C7.79938 9.90646 8.94532 10.4207 10.2088 10.4207C10.3029 10.4207 10.3637 10.4201 10.3912 10.419C10.4278 10.4176 10.4886 10.4135 10.5729 10.4068L10.6706 11.652L10.6706 11.652Z" fill="#7064E9"/>
<path d="M11.5384 13.7777C11.2837 13.8426 11.0233 13.8918 10.7585 13.9248C10.4964 13.9575 10.2316 13.9741 9.96523 13.9741C9.09117 13.9741 8.24498 13.7979 7.46441 13.4623C6.7772 13.1669 6.14158 12.7467 5.58341 12.2134C4.62047 12.8191 3.816 13.6181 3.19584 14.5721C2.51873 15.6137 2.05845 16.8446 1.84804 18.2154L1.8456 18.2178L1.8291 18.3237L0.598633 18.1333L0.614688 18.0301L0.612681 18.0298C0.849917 16.4843 1.3753 15.0865 2.15093 13.8934C2.93175 12.6923 3.96355 11.7033 5.20816 10.9837L5.21305 10.9812L5.37925 10.8868L5.80274 10.6462L6.13853 10.9991L6.26884 11.136C6.75681 11.6475 7.32985 12.045 7.95757 12.3149C8.58168 12.5832 9.26095 12.724 9.96524 12.724C10.1828 12.724 10.3971 12.7107 10.6071 12.6846C10.8179 12.6583 11.0261 12.6189 11.2308 12.5667L11.5384 13.7777Z" fill="#7064E9"/>
<path d="M18.9668 18.2809C16.9724 18.2809 15.1639 17.4696 13.8542 16.1598C12.5446 14.85 11.7334 13.0415 11.7334 11.0468C11.7334 9.05273 12.5445 7.24455 13.8539 5.93453C15.1651 4.62279 16.9738 3.81055 18.9668 3.81055C20.9614 3.81055 22.77 4.6217 24.0798 5.93133C25.3896 7.24094 26.2009 9.04932 26.2009 11.0437C26.2009 13.0369 25.3895 14.8457 24.0794 16.1563C22.7682 17.4681 20.9597 18.2809 18.9668 18.2809ZM14.738 15.2761C15.8216 16.3597 17.3174 17.0309 18.9668 17.0309C20.6177 17.0309 22.1134 16.3601 23.1956 15.2774C24.2795 14.193 24.9508 12.6953 24.9508 11.0438C24.9508 9.39442 24.2796 7.89861 23.196 6.81513C22.1124 5.73168 20.6164 5.06059 18.9668 5.06059C17.3156 5.06059 15.8198 5.73091 14.7377 6.81345C13.6544 7.89722 12.9834 9.39446 12.9834 11.0468C12.9834 12.6965 13.6545 14.1925 14.738 15.2761Z" fill="#7064E9"/>
<path d="M13.6587 27.8853H29.3762C29.3904 25.9607 29.0379 24.1829 28.236 22.6281C27.4537 21.1114 26.2359 19.7957 24.504 18.7497C23.7886 19.4552 22.9662 20.008 22.0737 20.3916C21.1044 20.8083 20.0531 21.0271 18.9668 21.0271C17.8808 21.0271 16.8297 20.8083 15.8605 20.3916C14.968 20.0079 14.1457 19.4552 13.4302 18.7497C13.1015 18.9482 12.7927 19.1554 12.5032 19.3708C12.1485 19.6347 11.8193 19.9133 11.5147 20.2056L10.6504 19.3072C10.991 18.9804 11.3608 18.6676 11.761 18.3698C12.1529 18.0783 12.5708 17.8034 13.0157 17.5462L13.0206 17.5438L13.2313 17.4238L13.6544 17.1828L13.9905 17.536L14.1559 17.7098C14.7912 18.3757 15.537 18.893 16.3536 19.2441C17.1664 19.5936 18.0506 19.7771 18.9668 19.7771C19.8834 19.7771 20.7677 19.5936 21.5805 19.2441C22.3973 18.8931 23.143 18.3757 23.7783 17.7098L23.7832 17.7049L23.9518 17.5312L24.29 17.1826L24.7111 17.4262L24.9185 17.5462C26.9803 18.737 28.423 20.2703 29.3444 22.0567C30.3338 23.9751 30.7128 26.1713 30.6055 28.5371L30.5784 29.1353H29.9829H13.6587L13.6587 27.8853Z" fill="#7064E9"/>
<path d="M6.31706 18.1313L3.29913 21.0138H4.35475H4.89245L4.97243 21.5485C5.24503 23.371 6.00292 24.7172 7.02678 25.696C7.6577 26.2991 8.39285 26.7682 9.18106 27.127C8.90315 26.7527 8.66253 26.3546 8.458 25.931C7.86837 24.7097 7.5871 23.293 7.5871 21.6388V21.0138H8.21212H9.33239L6.31706 18.1313ZM1.31251 21.1872L5.88755 16.8174L6.31746 16.4067L6.74694 16.8174L11.318 21.1872L10.8883 22.2638H8.85242C8.91247 23.4628 9.15049 24.4972 9.58106 25.389C10.0789 26.42 10.8423 27.2769 11.8941 27.995L11.4254 29.1229C9.52883 28.7598 7.62559 27.9933 6.16739 26.5993C5.05642 25.5373 4.2113 24.123 3.83155 22.2638H1.7422L1.31251 21.1872Z" fill="#7064E9"/>
</svg>
