<svg width="14" height="14" viewBox="0 0 14 14" fill="none" xmlns="http://www.w3.org/2000/svg">
<path d="M7 0C5.61553 0 4.26215 0.410543 3.11101 1.17971C1.95987 1.94888 1.06266 3.04213 0.532846 4.32122C0.00303301 5.6003 -0.13559 7.00776 0.134506 8.36563C0.404603 9.7235 1.07129 10.9708 2.05026 11.9497C3.02922 12.9287 4.2765 13.5954 5.63437 13.8655C6.99224 14.1356 8.3997 13.997 9.67878 13.4672C10.9579 12.9373 12.0511 12.0401 12.8203 10.889C13.5895 9.73785 14 8.38447 14 7C13.9978 5.14416 13.2596 3.36495 11.9473 2.05267C10.635 0.74039 8.85584 0.00218939 7 0ZM7 12.7273C5.86725 12.7273 4.75994 12.3914 3.8181 11.7621C2.87625 11.1327 2.14218 10.2383 1.70869 9.19173C1.27521 8.14521 1.16179 6.99365 1.38278 5.88266C1.60377 4.77168 2.14924 3.75118 2.95021 2.95021C3.75118 2.14923 4.77168 1.60376 5.88267 1.38277C6.99365 1.16179 8.14521 1.27521 9.19173 1.70869C10.2383 2.14217 11.1327 2.87625 11.7621 3.8181C12.3914 4.75994 12.7273 5.86725 12.7273 7C12.7254 8.5184 12.1214 9.97408 11.0477 11.0477C9.97408 12.1214 8.5184 12.7254 7 12.7273Z" fill="#CCCEEF"/>
<path d="M7.63698 6.7365V3.18177C7.63698 3.013 7.56994 2.85114 7.4506 2.7318C7.33126 2.61246 7.1694 2.54541 7.00062 2.54541C6.83185 2.54541 6.66999 2.61246 6.55064 2.7318C6.4313 2.85114 6.36426 3.013 6.36426 3.18177V6.99995C6.36429 7.16872 6.43136 7.33055 6.55071 7.44986L8.4598 9.35895C8.57982 9.47487 8.74057 9.53901 8.90742 9.53756C9.07427 9.53611 9.23388 9.46919 9.35187 9.3512C9.46986 9.23322 9.53678 9.07361 9.53823 8.90675C9.53968 8.7399 9.47554 8.57916 9.35962 8.45914L7.63698 6.7365Z" fill="#CCCEEF"/>
</svg>
