<svg width="1173" height="179" viewBox="0 0 1173 179" fill="none" xmlns="http://www.w3.org/2000/svg">
<path opacity="0.1" d="M102.265 25.4407C161.065 6.35819 229.25 4.8058 289.436 21.1733C369.369 42.9171 435.603 94.6506 520.151 100.04C588.912 104.422 653.361 76.939 713.981 51.7409C774.602 26.5429 842.457 2.04036 910 12.8131C955.729 20.1048 995.397 42.9608 1041.34 49.3989C1094.13 56.7947 1151.52 39.7652 1183.95 7.07056C1185.61 98.4611 1187.27 189.852 1188.92 281.242C816.731 282.23 444.538 283.218 72.3412 284.206C51.0414 284.263 25.7814 282.694 14.9644 268.668C11.1976 263.786 9.87463 258.057 8.62196 252.472C2.363 224.626 -3.90036 196.777 -10.1593 168.931C-13.9129 152.238 -27.7231 129.855 -22.2685 113.031C-16.0798 93.9416 10.9383 74.2777 29.2317 61.4788C44.6066 50.7228 80.0242 25.4441 102.265 25.4441V25.4407Z" fill="url(#paint0_linear_437_10044)"/>
<path opacity="0.2" d="M72.8773 29.5942C107.394 52.2654 138.117 80.3532 180.875 92.2617C231.316 106.311 287.532 94.718 337.327 79.3788C387.122 64.0395 436.609 44.6848 490.254 43.0517C609.456 39.4227 706.1 122.571 824.682 132.534C891.979 138.189 962.146 117.907 1007.72 79.6308C1028.44 62.2317 1044.27 41.4657 1067.13 25.7165C1089.99 9.96727 1123.6 -0.156988 1151.71 9.42292C1189.1 22.1681 1195.8 59.8325 1197.19 91.1092C1200.13 156.992 1203.06 222.876 1206 288.759C799.62 287.227 393.24 285.698 -13.1351 284.166C1.94968 284.223 -20.071 86.9426 -23.2796 69.3889C-26.4222 52.1982 -35.6436 18.8449 -15.4031 5.08492C9.34264 -11.7362 54.5531 17.5546 72.8816 29.5942H72.8773Z" fill="url(#paint1_linear_437_10044)"/>
<path opacity="0.15" d="M51.7627 131.955C96.0677 120.463 144.676 123.478 190.343 131.24C236.011 139.005 280.228 151.337 326.089 158.4C441.497 176.175 565.542 158.686 665.062 110.601C705.692 90.9711 745.51 65.6083 793.507 63.6494C831.654 62.0902 867.981 75.9409 899.742 92.1707C931.507 108.397 961.233 127.533 996.431 138.891C1054.77 157.721 1125.48 152.153 1177.58 124.63C1184.09 170.134 1190.59 215.641 1197.1 261.145C791.401 298.046 380.815 303.426 -26.2942 277.18C-33.2608 247.785 -47.9764 217.644 -31.4279 189.112C-19.3495 168.286 17.5889 131.959 51.7627 131.959V131.955Z" fill="url(#paint2_linear_437_10044)"/>
<path opacity="0.1" d="M65.1079 179.567C92.2711 167.319 122.973 160.551 153.467 154.402C248.596 135.229 347.737 120.857 445.045 131.916C531.757 141.768 612.341 171.264 696.898 188.955C781.456 206.646 877.916 211.072 951.199 174.291C995.135 152.238 1031.8 115.538 1084.28 113.378C1133.88 111.335 1176.9 143.623 1192.12 179.772C1207.34 215.921 1201.23 255.033 1194.96 292.701C825.515 290.698 456.064 288.696 86.6143 286.69C51.5703 286.498 -1.35836 279.526 -1.58252 244.123C-1.74515 218.384 39.0348 191.324 65.1123 179.563L65.1079 179.567Z" fill="url(#paint3_linear_437_10044)"/>
<defs>
<linearGradient id="paint0_linear_437_10044" x1="-23.5273" y1="145.639" x2="1188.92" y2="145.639" gradientUnits="userSpaceOnUse">
<stop stop-color="#7064E9"/>
<stop offset="1" stop-color="#DD00AC"/>
</linearGradient>
<linearGradient id="paint1_linear_437_10044" x1="-28.1172" y1="144.38" x2="1206" y2="144.38" gradientUnits="userSpaceOnUse">
<stop stop-color="#7064E9"/>
<stop offset="1" stop-color="#DD00AC"/>
</linearGradient>
<linearGradient id="paint2_linear_437_10044" x1="-39" y1="178.526" x2="1197.1" y2="178.526" gradientUnits="userSpaceOnUse">
<stop stop-color="#7064E9"/>
<stop offset="1" stop-color="#DD00AC"/>
</linearGradient>
<linearGradient id="paint3_linear_437_10044" x1="-1.58301" y1="202.993" x2="1201.64" y2="202.993" gradientUnits="userSpaceOnUse">
<stop stop-color="#7064E9"/>
<stop offset="1" stop-color="#DD00AC"/>
</linearGradient>
</defs>
</svg>
